<mxfile host="app.diagrams.net" modified="2024-04-16T13:45:12.654Z" agent="Mozilla/5.0 (Windows NT 10.0; Win64; x64) AppleWebKit/537.36 (KHTML, like Gecko) Chrome/123.0.0.0 Safari/537.36" version="24.2.5" etag="ZxjiDHN2R4DkP0D7e0RB" type="github">
  <diagram name="PÃ¡gina-1" id="6N3xVisvnVJ3DK__fOOa">
    <mxGraphModel>
      <root>
        <mxCell id="0" />
        <mxCell id="1" parent="0" />
      </root>
    </mxGraphModel>
  </diagram>
</mxfile>
